<?xml version="1.0" encoding="UTF-8"?>
<svg version="1.1" xmlns="http://www.w3.org/2000/svg" width="976" height="167">
<path d="M0 0 C322.08 0 644.16 0 976 0 C976 55.11 976 110.22 976 167 C653.92 167 331.84 167 0 167 C0 111.89 0 56.78 0 0 Z " fill="#F5C657" transform="translate(0,0)"/>
<path d="M0 0 C322.08 0 644.16 0 976 0 C976 55.11 976 110.22 976 167 C653.92 167 331.84 167 0 167 C0 111.89 0 56.78 0 0 Z M23 3 C23 3.66 23 4.32 23 5 C20.36 5 17.72 5 15 5 C15 5.66 15 6.32 15 7 C14.34 7 13.68 7 13 7 C13 7.66 13 8.32 13 9 C12.34 9 11.68 9 11 9 C11 9.66 11 10.32 11 11 C10.34 11 9.68 11 9 11 C9 11.66 9 12.32 9 13 C8.34 13 7.68 13 7 13 C7 13.66 7 14.32 7 15 C6.34 15 5.68 15 5 15 C5 15.66 5 16.32 5 17 C4.34 17 3.68 17 3 17 C3 20.96 3 24.92 3 29 C2.34 29 1.68 29 1 29 C1 66.29 1 103.58 1 142 C1.66 142 2.32 142 3 142 C3 144.31 3 146.62 3 149 C3.66 149 4.32 149 5 149 C5 150.32 5 151.64 5 153 C5.66 153 6.32 153 7 153 C7 153.66 7 154.32 7 155 C7.66 155 8.32 155 9 155 C9 155.66 9 156.32 9 157 C9.66 157 10.32 157 11 157 C11 157.66 11 158.32 11 159 C11.66 159 12.32 159 13 159 C13 159.66 13 160.32 13 161 C14.32 161 15.64 161 17 161 C17 161.66 17 162.32 17 163 C24.72365251 165.50603149 32.41770969 165.27581776 40.44606781 165.24609566 C42.03461912 165.24757589 43.62316981 165.24993408 45.21171868 165.25308865 C49.58512423 165.25922418 53.95843674 165.25287858 58.33183535 165.24453239 C63.08655472 165.23766284 67.84126466 165.2424058 72.59598589 165.24568737 C80.93175964 165.24983579 89.26750486 165.24654567 97.6032753 165.23841095 C109.99828715 165.22634847 122.39328098 165.22573864 134.78829763 165.22749493 C155.63795888 165.23012383 176.48760746 165.22343572 197.33726501 165.21146011 C217.98469607 165.19963103 238.63212185 165.19192922 259.27955627 165.18975449 C260.56276348 165.18961701 261.84597068 165.18947953 263.16806294 165.18933788 C269.68467286 165.18866123 276.20128278 165.18805846 282.71789271 165.18748413 C295.96950351 165.18627807 309.22111423 165.18442116 322.47272491 165.18227959 C323.46724095 165.18211963 323.46724095 165.18211963 324.48184822 165.18195645 C356.73236693 165.17671359 388.98288219 165.16409854 421.23339844 165.15087891 C432.42484535 165.14629558 443.61629228 165.14174485 454.80773926 165.1373291 C455.50183528 165.1370552 456.19593129 165.1367813 456.91106052 165.13649911 C489.17875508 165.12381059 521.44645022 165.11635965 553.71414662 165.11025951 C555.80902882 165.10986338 557.90391103 165.109465 559.99879324 165.10906615 C573.88170459 165.10642659 587.76461597 165.10387729 601.64752735 165.10138843 C629.92928429 165.09631742 658.21104109 165.09067334 686.49279785 165.08468628 C687.79318227 165.0844117 689.0935667 165.08413712 690.43335671 165.08385422 C777.28890734 165.06544908 864.14445415 165.03375824 951 165 C951 164.34 951 163.68 951 163 C952.98 163 954.96 163 957 163 C957 162.34 957 161.68 957 161 C958.32 161 959.64 161 961 161 C961 160.34 961 159.68 961 159 C961.66 159 962.32 159 963 159 C963 158.34 963 157.68 963 157 C964.32 157 965.64 157 967 157 C967 155.68 967 154.36 967 153 C967.66 153 968.32 153 969 153 C969 152.34 969 151.68 969 151 C969.66 151 970.32 151 971 151 C971 149.68 971 148.36 971 147 C971.66 147 972.32 147 973 147 C973 145.68 973 144.36 973 143 C973.66 143 974.32 143 975 143 C975 104.06 975 65.12 975 25 C974.34 25 973.68 25 973 25 C973 23.02 973 21.04 973 19 C972.34 19 971.68 19 971 19 C971 18.34 971 17.68 971 17 C970.34 17 969.68 17 969 17 C969 16.34 969 15.68 969 15 C968.34 15 967.68 15 967 15 C967 13.68 967 12.36 967 11 C965.68 11 964.36 11 963 11 C963 10.34 963 9.68 963 9 C962.34 9 961.68 9 961 9 C961 8.34 961 7.68 961 7 C959.68 7 958.36 7 957 7 C957 6.34 957 5.68 957 5 C952.61126029 3.3263379 948.99183028 2.75033922 944.30444586 2.75160301 C943.65234879 2.74904683 943.00025172 2.74649066 942.32839413 2.74385703 C940.14176103 2.73772832 937.9554166 2.74585659 935.76879311 2.75390434 C934.17916194 2.75242491 932.58953139 2.75006757 930.99990267 2.74691135 C926.61417487 2.74076311 922.22853954 2.74713196 917.84281862 2.75546761 C913.07821817 2.76232663 908.31362724 2.75759621 903.54902494 2.75431263 C895.19280099 2.75016092 886.83660548 2.75345993 878.48038483 2.76158905 C866.05493179 2.77364329 853.62949676 2.77426213 841.20403894 2.77250507 C820.30395494 2.76987516 799.40388358 2.77656811 778.50380325 2.78853989 C757.8044796 2.80036632 737.10516121 2.80807024 716.4058342 2.81024551 C715.11971682 2.81038299 713.83359945 2.81052047 712.50850882 2.81066212 C705.9772009 2.81133877 699.44589297 2.81194154 692.91458504 2.81251587 C679.63260321 2.81372197 666.35062147 2.8155789 653.06863976 2.81772041 C652.40408952 2.81782705 651.73953928 2.81793368 651.05485116 2.81804355 C618.72422824 2.82328725 586.39360876 2.83590264 554.06298828 2.84912109 C542.84281415 2.85370439 531.62264001 2.85825511 520.40246582 2.8626709 C519.35865871 2.86308175 519.35865871 2.86308175 518.29376458 2.86350089 C485.94755528 2.87618785 453.60134539 2.88363985 421.25513426 2.88974049 C419.15532625 2.89013662 417.05551823 2.890535 414.95571022 2.89093385 C401.04023282 2.8935734 387.12475541 2.8961227 373.20927799 2.89861157 C344.86082186 2.90368267 316.51236586 2.90932675 288.16390991 2.91531372 C286.20870494 2.91572559 286.20870494 2.91572559 284.21400088 2.91614578 C197.14266439 2.93455295 110.07133172 2.96624403 23 3 Z " fill="#FEFBF5" transform="translate(0,0)"/>
<path d="M0 0 C88.44442561 -0.03426173 176.88885202 -0.06606304 265.33328247 -0.08468628 C266.6412428 -0.08496239 267.94920312 -0.08523851 269.29679861 -0.08552299 C297.02675034 -0.09136236 324.75670214 -0.09680146 352.48665404 -0.10175936 C366.41571687 -0.1042502 380.34477968 -0.10682015 394.27384248 -0.10946488 C396.37502768 -0.10986338 398.47621289 -0.11025962 400.57739809 -0.11065576 C432.94397452 -0.11677785 465.31054945 -0.12459948 497.67712402 -0.1373291 C498.37336992 -0.1376029 499.06961583 -0.1378767 499.78696009 -0.13815879 C511.01295868 -0.1425837 522.23895722 -0.14715085 533.46495575 -0.15173688 C565.78770305 -0.16493915 598.1104492 -0.17709468 630.43319893 -0.18227959 C631.09747829 -0.18238666 631.76175765 -0.18249373 632.44616668 -0.18260404 C646.37186813 -0.18483056 660.29756961 -0.18660564 674.22327118 -0.18782998 C680.74396185 -0.18840633 687.26465251 -0.18905761 693.78534317 -0.18975449 C695.71048637 -0.18995676 695.71048637 -0.18995676 697.67452135 -0.19016311 C718.37593521 -0.19253116 739.07734052 -0.20181967 759.77875088 -0.21366407 C780.56535686 -0.22541069 801.35195432 -0.22994297 822.1385635 -0.22700275 C834.5046103 -0.22547581 846.87062605 -0.22958849 859.23666728 -0.24159509 C867.48207761 -0.24905746 875.72746745 -0.24935388 883.97287915 -0.24366363 C888.68065986 -0.24062462 893.38838156 -0.24085249 898.09615611 -0.24976636 C902.37025895 -0.25779821 906.6442562 -0.25680007 910.91835723 -0.24827995 C912.46331454 -0.24683941 914.00827937 -0.24882594 915.55322704 -0.25447049 C917.63603012 -0.26160376 919.7184495 -0.25662589 921.80123985 -0.24839699 C923.53777214 -0.24886493 923.53777214 -0.24886493 925.30938589 -0.24934233 C928 0 928 0 930 2 C929.1963403 2.00055616 928.3926806 2.00111233 927.56466758 2.00168534 C840.09792179 2.06228629 752.63117791 2.12534716 665.16444397 2.20132446 C663.85858367 2.20245809 662.55272337 2.20359171 661.20729154 2.20475969 C633.5207569 2.22880895 605.83422262 2.25325722 578.14768876 2.27818505 C564.24005982 2.29070648 550.33243081 2.30314908 536.42480174 2.31551713 C534.32687357 2.31738327 532.2289454 2.31925167 530.13101724 2.32112016 C497.82155892 2.34987627 465.51210028 2.37694042 433.20263672 2.39910889 C432.16042045 2.39982403 432.16042045 2.39982403 431.0971493 2.40055362 C419.89456775 2.40823029 408.6919861 2.41576511 397.48940444 2.42328111 C365.22694766 2.44492868 332.96449315 2.46762321 300.70204258 2.49726295 C300.03874683 2.49787182 299.37545108 2.49848068 298.69205546 2.499108 C284.78571646 2.51189113 270.87937792 2.52512428 256.97303987 2.53890612 C250.46098032 2.54535683 243.9489207 2.55173289 237.43686104 2.55806351 C235.51429824 2.55993596 235.51429824 2.55993596 233.55289578 2.56184625 C212.89338794 2.58177512 192.23388118 2.59481227 171.57436663 2.60529328 C150.82127253 2.61596807 130.06819468 2.63385317 109.31511318 2.65916704 C96.97456428 2.6739986 84.63404026 2.68323309 72.29348236 2.68456683 C64.05867445 2.68600059 55.82389462 2.69461485 47.58909947 2.70915592 C42.89148514 2.71724284 38.19392599 2.72212414 33.49630498 2.71827881 C29.22555977 2.71484418 24.954929 2.72052538 20.68420325 2.73358065 C19.14607552 2.73666687 17.60793656 2.73638819 16.06981092 2.73239125 C13.98418308 2.72745586 11.89894041 2.73480389 9.8133406 2.74519098 C8.65768016 2.74612686 7.50201971 2.74706275 6.31133926 2.74802699 C2.65380186 3.0263436 -0.504561 3.91264764 -4 5 C-5.99488234 5.36270588 -7.9937811 5.70640699 -10 6 C-10 5.34 -10 4.68 -10 4 C-9.34 4 -8.68 4 -8 4 C-8 3.34 -8 2.68 -8 2 C-5.36 2 -2.72 2 0 2 C0 1.34 0 0.68 0 0 Z " fill="#F7D27C" transform="translate(23,3)"/>
<path d="M0 0 C8.25 0 16.5 0 25 0 C25 0.66 25 1.32 25 2 C27.31 2 29.62 2 32 2 C32 2.66 32 3.32 32 4 C32.66 4 33.32 4 34 4 C34.495 5.98 34.495 5.98 35 8 C35.66 8 36.32 8 37 8 C37.50146657 15.57771707 36.94998798 20.45783241 33 27 C32.34 27 31.68 27 31 27 C30.773125 27.94875 30.54625 28.8975 30.3125 29.875 C29 33 29 33 27 34.1875 C22.85673465 35.30963436 18.95717207 35.21261758 14.6875 35.125 C13.85154297 35.11597656 13.01558594 35.10695312 12.15429688 35.09765625 C10.10274031 35.07420989 8.05133223 35.03834266 6 35 C6.02320313 35.6290625 6.04640625 36.258125 6.0703125 36.90625 C6.19184081 42.67016398 5.63773706 47.47263742 4 53 C-0.62 53 -5.24 53 -10 53 C-7.60840708 24.40265487 -7.60840708 24.40265487 -4 11 C-3.34 11 -2.68 11 -2 11 C-2 8.03 -2 5.06 -2 2 C-1.34 2 -0.68 2 0 2 C0 1.34 0 0.68 0 0 Z " fill="#183580" transform="translate(368,55)"/>
<path d="M0 0 C9.57 0 19.14 0 29 0 C29 0.66 29 1.32 29 2 C30.32 2 31.64 2 33 2 C33 2.66 33 3.32 33 4 C33.66 4 34.32 4 35 4 C35 4.66 35 5.32 35 6 C35.66 6 36.32 6 37 6 C37.05404449 8.75026417 37.09369306 11.49946203 37.125 14.25 C37.14175781 15.02730469 37.15851562 15.80460937 37.17578125 16.60546875 C37.23662606 23.72431144 37.23662606 23.72431144 35 27 C34.34 27 33.68 27 33 27 C33 27.66 33 28.32 33 29 C32.34 29 31.68 29 31 29 C31 29.66 31 30.32 31 31 C30.195625 31.28875 29.39125 31.5775 28.5625 31.875 C25.8673532 32.73262568 25.8673532 32.73262568 25 35 C19.06 35 13.12 35 7 35 C6.38275007 40.17505503 6.38275007 40.17505503 5.77368164 45.35107422 C5.11111111 50.77777778 5.11111111 50.77777778 4 53 C0.04 53 -3.92 53 -8 53 C-8.31543952 42.70021384 -7.3737446 33.31266997 -5.54638672 23.20996094 C-5.11965033 20.84535677 -4.7129175 18.47790452 -4.30859375 16.109375 C-4.04281299 14.59094474 -3.77592744 13.07270734 -3.5078125 11.5546875 C-3.3868924 10.85366913 -3.26597229 10.15265076 -3.14138794 9.4303894 C-2.48432492 5.84183141 -1.65879024 3.31758048 0 0 Z " fill="#499BD3" transform="translate(506,55)"/>
<path d="M0 0 C0.93585937 0.01804687 1.87171875 0.03609375 2.8359375 0.0546875 C5.14167015 0.10174327 7.44530945 0.16746287 9.75 0.25 C9.75 0.91 9.75 1.57 9.75 2.25 C11.07 2.25 12.39 2.25 13.75 2.25 C13.75 1.59 13.75 0.93 13.75 0.25 C17.38 0.25 21.01 0.25 24.75 0.25 C24.75 2.23 24.75 4.21 24.75 6.25 C24.09 6.25 23.43 6.25 22.75 6.25 C22.76160156 7.33539063 22.77320313 8.42078125 22.78515625 9.5390625 C22.79454138 10.98437327 22.80364081 12.42968591 22.8125 13.875 C22.82087891 14.58785156 22.82925781 15.30070312 22.83789062 16.03515625 C22.85710296 20.22344438 22.5767327 24.1228462 21.75 28.25 C21.09 28.25 20.43 28.25 19.75 28.25 C19.770625 29.19875 19.79125 30.1475 19.8125 31.125 C19.75 34.25 19.75 34.25 18.75 36.25 C15.12 36.25 11.49 36.25 7.75 36.25 C7.75 35.59 7.75 34.93 7.75 34.25 C6.43 34.25 5.11 34.25 3.75 34.25 C3.75 34.91 3.75 35.57 3.75 36.25 C-2.19 36.25 -8.13 36.25 -14.25 36.25 C-14.25 35.59 -14.25 34.93 -14.25 34.25 C-14.91 34.25 -15.57 34.25 -16.25 34.25 C-16.25 33.59 -16.25 32.93 -16.25 32.25 C-16.91 32.25 -17.57 32.25 -18.25 32.25 C-18.25 30.93 -18.25 29.61 -18.25 28.25 C-18.91 28.25 -19.57 28.25 -20.25 28.25 C-20.25 23.63 -20.25 19.01 -20.25 14.25 C-19.59 14.25 -18.93 14.25 -18.25 14.25 C-18.0334375 12.826875 -18.0334375 12.826875 -17.8125 11.375 C-17.25 8.25 -17.25 8.25 -16.25 6.25 C-15.59 6.25 -14.93 6.25 -14.25 6.25 C-14.25 5.59 -14.25 4.93 -14.25 4.25 C-10.75477875 -1.17361918 -5.77882782 -0.21043351 0 0 Z " fill="#4C9BD1" transform="translate(561.25,71.75)"/>
<path d="M0 0 C0.76376953 0.00064453 1.52753906 0.00128906 2.31445312 0.00195312 C8.02484789 0.04668207 8.02484789 0.04668207 10.75024414 0.76049805 C11.64731079 0.97186401 11.64731079 0.97186401 12.5625 1.1875 C12.8925 0.8575 13.2225 0.5275 13.5625 0.1875 C15.39365883 0.08898829 17.22869933 0.05777371 19.0625 0.0625 C20.0628125 0.05992188 21.063125 0.05734375 22.09375 0.0546875 C24.5625 0.1875 24.5625 0.1875 25.5625 1.1875 C25.52226493 2.96093805 25.40047339 4.73249918 25.25 6.5 C25.15203125 7.655 25.0540625 8.81 24.953125 10 C24.21316064 18.06799848 23.39013411 26.1281115 22.5625 34.1875 C21.9025 34.1875 21.2425 34.1875 20.5625 34.1875 C20.5625 34.8475 20.5625 35.5075 20.5625 36.1875 C16.6025 36.1875 12.6425 36.1875 8.5625 36.1875 C8.5625 35.5275 8.5625 34.8675 8.5625 34.1875 C6.2525 34.1875 3.9425 34.1875 1.5625 34.1875 C1.5625 34.8475 1.5625 35.5075 1.5625 36.1875 C-3.3875 36.1875 -8.3375 36.1875 -13.4375 36.1875 C-13.4375 35.5275 -13.4375 34.8675 -13.4375 34.1875 C-14.0975 34.1875 -14.7575 34.1875 -15.4375 34.1875 C-15.4375 33.5275 -15.4375 32.8675 -15.4375 32.1875 C-16.0975 32.1875 -16.7575 32.1875 -17.4375 32.1875 C-19.95447065 23.25631383 -17.95298725 14.90186655 -15.4375 6.1875 C-14.7775 6.1875 -14.1175 6.1875 -13.4375 6.1875 C-13.4375 5.5275 -13.4375 4.8675 -13.4375 4.1875 C-12.7775 4.1875 -12.1175 4.1875 -11.4375 4.1875 C-11.4375 3.5275 -11.4375 2.8675 -11.4375 2.1875 C-7.59508361 -0.37411093 -4.44504875 -0.07091178 0 0 Z " fill="#173480" transform="translate(422.4375,71.8125)"/>
<path d="M0 0 C3.96 0 7.92 0 12 0 C12 1.32 12 2.64 12 4 C11.34 4 10.68 4 10 4 C9.566875 4.86625 9.566875 4.86625 9.125 5.75 C8.08333333 7.83333333 7.04166667 9.91666667 6 12 C5.34 12 4.68 12 4 12 C3.67 13.32 3.34 14.64 3 16 C2.34 16 1.68 16 1 16 C0.34 17.98 -0.32 19.96 -1 22 C-1.66 22 -2.32 22 -3 22 C-3 22.66 -3 23.32 -3 24 C-3.66 24 -4.32 24 -5 24 C-5 25.32 -5 26.64 -5 28 C-5.66 28 -6.32 28 -7 28 C-7 28.66 -7 29.32 -7 30 C-7.66 30 -8.32 30 -9 30 C-9 31.32 -9 32.64 -9 34 C-9.66 34 -10.32 34 -11 34 C-11.66 35.98 -12.32 37.96 -13 40 C-13.66 40 -14.32 40 -15 40 C-15.66 41.98 -16.32 43.96 -17 46 C-17.66 46 -18.32 46 -19 46 C-19 46.66 -19 47.32 -19 48 C-23.29 48 -27.58 48 -32 48 C-30 42 -30 42 -29 40 C-28.34 40 -27.68 40 -27 40 C-27 39.34 -27 38.68 -27 38 C-26.34 38 -25.68 38 -25 38 C-25 37.34 -25 36.68 -25 36 C-24.34 36 -23.68 36 -23 36 C-23 32.7 -23 29.4 -23 26 C-23.66 26 -24.32 26 -25 26 C-25.33 22.7 -25.66 19.4 -26 16 C-26.99 16 -27.98 16 -29 16 C-29.33 12.04 -29.66 8.08 -30 4 C-30.66 4 -31.32 4 -32 4 C-31.67 3.01 -31.34 2.02 -31 1 C-29.37509046 0.97301811 -27.75005367 0.95361243 -26.125 0.9375 C-25.22007812 0.92589844 -24.31515625 0.91429688 -23.3828125 0.90234375 C-21 1 -21 1 -19 2 C-19 3.32 -19 4.64 -19 6 C-18.01 6 -17.02 6 -16 6 C-14.86235649 10.26616316 -14 13.56486311 -14 18 C-13.01 18 -12.02 18 -11 18 C-10.690625 17.05125 -10.38125 16.1025 -10.0625 15.125 C-9 12 -9 12 -8 10 C-7.34 10 -6.68 10 -6 10 C-5.34 8.02 -4.68 6.04 -4 4 C-3.01 4 -2.02 4 -1 4 C-0.67 2.68 -0.34 1.36 0 0 Z " fill="#1B377F" transform="translate(485,72)"/>
<path d="M0 0 C4.62 0 9.24 0 14 0 C14.20883757 7.57384253 13.45766028 14.55222484 12.125 22 C11.86396484 23.52367187 11.86396484 23.52367187 11.59765625 25.078125 C10.768839 29.86684691 9.88153186 34.63739368 8.90625 39.3984375 C8.21464136 42.80401384 7.67213549 46.15841929 7.375 49.625 C7.25125 51.06875 7.1275 52.5125 7 54 C3.04 54 -0.92 54 -5 54 C-5.30028604 47.79408855 -4.75424654 42.09656252 -3.625 36 C-1.4407282 24.09948467 -0.79206658 12.05804895 0 0 Z " fill="#4A9BD2" transform="translate(594,54)"/>
<path d="M0 0 C8.25 0 16.5 0 25 0 C25 0.99 25 1.98 25 3 C24.34 3 23.68 3 23 3 C23 3.66 23 4.32 23 5 C20.36 5 17.72 5 15 5 C15 5.66 15 6.32 15 7 C14.34 7 13.68 7 13 7 C13 7.66 13 8.32 13 9 C12.34 9 11.68 9 11 9 C11 9.66 11 10.32 11 11 C10.34 11 9.68 11 9 11 C9 11.66 9 12.32 9 13 C8.34 13 7.68 13 7 13 C7 13.66 7 14.32 7 15 C6.34 15 5.68 15 5 15 C5 15.66 5 16.32 5 17 C4.34 17 3.68 17 3 17 C3 20.96 3 24.92 3 29 C2.34 29 1.68 29 1 29 C1 66.29 1 103.58 1 142 C1.66 142 2.32 142 3 142 C3 144.31 3 146.62 3 149 C3.66 149 4.32 149 5 149 C5 149.66 5 150.32 5 151 C3.35 150.34 1.7 149.68 0 149 C0 99.83 0 50.66 0 0 Z " fill="#FEFCF7" transform="translate(0,0)"/>
<path d="M0 0 C3.63 0 7.26 0 11 0 C13.04379831 4.08759663 13.18594005 4.98685565 12.625 9.25 C12.45871094 10.58804688 12.45871094 10.58804688 12.2890625 11.953125 C12.14597656 12.96632813 12.14597656 12.96632813 12 14 C10.68 14 9.36 14 8 14 C8 14.66 8 15.32 8 16 C7.34 16 6.68 16 6 16 C6 16.66 6 17.32 6 18 C3.36 18 0.72 18 -2 18 C-2 17.34 -2 16.68 -2 16 C-2.66 16 -3.32 16 -4 16 C-4 15.34 -4 14.68 -4 14 C-4.66 14 -5.32 14 -6 14 C-6.28571429 5.42857143 -6.28571429 5.42857143 -4 2 C-2.68 2 -1.36 2 0 2 C0 1.34 0 0.68 0 0 Z " fill="#E8C25F" transform="translate(559,82)"/>
<path d="M0 0 C3.3 0 6.6 0 10 0 C12.35333796 4.70667591 12.17102038 6.8693886 12 12 C11.34 12 10.68 12 10 12 C9.67 13.32 9.34 14.64 9 16 C5.04 16 1.08 16 -3 16 C-3 15.34 -3 14.68 -3 14 C-3.99 14 -4.98 14 -6 14 C-6.28571429 5.42857143 -6.28571429 5.42857143 -4 2 C-2.68 2 -1.36 2 0 2 C0 1.34 0 0.68 0 0 Z " fill="#ECC058" transform="translate(421,82)"/>
<path d="M0 0 C0.33 0 0.66 0 1 0 C0.61423174 9.01899586 -0.33776846 17.7297768 -1.90673828 26.61621094 C-2.86625066 32.06890459 -3.55466744 37.47787621 -4 43 C-4.99 43 -5.98 43 -7 43 C-7.33 40.69 -7.66 38.38 -8 36 C-8.99 38.31 -9.98 40.62 -11 43 C-11.66 43 -12.32 43 -13 43 C-12.67 40.36 -12.34 37.72 -12 35 C-11.34 35 -10.68 35 -10 35 C-9.67 27.74 -9.34 20.48 -9 13 C-8.34 13 -7.68 13 -7 13 C-7 11.02 -7 9.04 -7 7 C-6.67 7 -6.34 7 -6 7 C-6 11.62 -6 16.24 -6 21 C-5.01 21 -4.02 21 -3 21 C-3.02320313 20.28714844 -3.04640625 19.57429688 -3.0703125 18.83984375 C-3.17849904 13.09822958 -2.91803309 8.41562283 -1 3 C-0.67 2.01 -0.34 1.02 0 0 Z M-8 21 C-7.67 21.66 -7.34 22.32 -7 23 C-6.67 22.34 -6.34 21.68 -6 21 C-6.66 21 -7.32 21 -8 21 Z " fill="#D4BD6E" transform="translate(593,65)"/>
<path d="M0 0 C2.1640625 -0.29296875 2.1640625 -0.29296875 4.625 -0.1875 C5.44226563 -0.16042969 6.25953125 -0.13335937 7.1015625 -0.10546875 C8.04128906 -0.05326172 8.04128906 -0.05326172 9 0 C9 0.66 9 1.32 9 2 C9.66 2 10.32 2 11 2 C12.3899408 4.7798816 12.18488204 6.9186326 12 10 C11.16278537 12.51164389 10.46754146 13.64035272 8.375 15.25 C4.86146845 16.35953628 1.67700382 16.12256679 -2 16 C-2.05402274 13.89611431 -2.09280256 11.79183286 -2.125 9.6875 C-2.14820313 8.51574219 -2.17140625 7.34398438 -2.1953125 6.13671875 C-2 3 -2 3 0 0 Z " fill="#EFC45A" transform="translate(517,64)"/>
<path d="M0 0 C0.91007812 0.10183594 1.82015625 0.20367187 2.7578125 0.30859375 C3.45648438 0.39238281 4.15515625 0.47617188 4.875 0.5625 C6.34250903 7.77775271 6.34250903 7.77775271 4.125 11.5 C1.05136929 14.31749482 -1.29425967 14.69087279 -5.3125 14.625 C-7.1996875 14.5940625 -7.1996875 14.5940625 -9.125 14.5625 C-9.30286056 9.40454369 -9.24096899 5.38220715 -7.125 0.5625 C-4.50184968 -0.74907516 -2.89466564 -0.33399988 0 0 Z " fill="#D1AF5C" transform="translate(385.125,65.4375)"/>
<path d="M0 0 C1.01576363 -0.00143509 1.01576363 -0.00143509 2.05204773 -0.00289917 C3.48871961 -0.00358107 4.92539455 -0.0017261 6.36206055 0.00244141 C8.55459601 0.00776486 10.74692429 0.0025097 12.93945312 -0.00390625 C14.33463587 -0.00324498 15.72981848 -0.00196282 17.125 0 C18.39641846 0.00112793 19.66783691 0.00225586 20.9777832 0.00341797 C27.29281707 0.25224467 27.29281707 0.25224467 29.71313477 2.4519043 C33.22024615 7.23922527 34.09526815 11.06805751 34.19921875 16.9453125 C34.22878662 17.74211426 34.25835449 18.53891602 34.28881836 19.35986328 C34.41176983 24.36261079 34.00741213 28.88508356 32.7421875 33.7421875 C31.79142462 38.47281255 32.11317605 43.329932 32.26171875 48.1328125 C31.60171875 48.1328125 30.94171875 48.1328125 30.26171875 48.1328125 C27.72705838 43.06349175 29.13635092 35.47830969 30.26171875 30.1328125 C29.27171875 30.1328125 28.28171875 30.1328125 27.26171875 30.1328125 C27.26171875 30.7928125 27.26171875 31.4528125 27.26171875 32.1328125 C26.60171875 32.1328125 25.94171875 32.1328125 25.26171875 32.1328125 C25.59171875 30.8128125 25.92171875 29.4928125 26.26171875 28.1328125 C26.92171875 28.1328125 27.58171875 28.1328125 28.26171875 28.1328125 C28.57109375 27.1840625 28.88046875 26.2353125 29.19921875 25.2578125 C30.26171875 22.1328125 30.26171875 22.1328125 31.26171875 20.1328125 C31.48922025 18.26224459 31.67134686 16.38595292 31.82421875 14.5078125 C31.90800781 13.50492188 31.99179687 12.50203125 32.078125 11.46875 C32.16900391 10.31246094 32.16900391 10.31246094 32.26171875 9.1328125 C31.60171875 9.1328125 30.94171875 9.1328125 30.26171875 9.1328125 C29.76671875 7.1528125 29.76671875 7.1528125 29.26171875 5.1328125 C28.60171875 5.1328125 27.94171875 5.1328125 27.26171875 5.1328125 C27.26171875 4.4728125 27.26171875 3.8128125 27.26171875 3.1328125 C24.95171875 3.1328125 22.64171875 3.1328125 20.26171875 3.1328125 C20.26171875 2.4728125 20.26171875 1.8128125 20.26171875 1.1328125 C12.01171875 1.1328125 3.76171875 1.1328125 -4.73828125 1.1328125 C-4.73828125 1.7928125 -4.73828125 2.4528125 -4.73828125 3.1328125 C-5.39828125 3.1328125 -6.05828125 3.1328125 -6.73828125 3.1328125 C-6.73828125 6.1028125 -6.73828125 9.0728125 -6.73828125 12.1328125 C-7.39828125 12.1328125 -8.05828125 12.1328125 -8.73828125 12.1328125 C-8.59790604 10.31988161 -8.45083236 8.5074682 -8.30078125 6.6953125 C-8.21957031 5.68597656 -8.13835937 4.67664062 -8.0546875 3.63671875 C-7.43101277 -1.29878128 -4.39821211 0.00391225 0 0 Z " fill="#988967" transform="translate(372.73828125,53.8671875)"/>
<path d="M0 0 C0.66 0 1.32 0 2 0 C2 2.64 2 5.28 2 8 C1.34 8 0.68 8 0 8 C0 45.29 0 82.58 0 121 C0.66 121 1.32 121 2 121 C2 123.31 2 125.62 2 128 C2.66 128 3.32 128 4 128 C4 128.66 4 129.32 4 130 C2.35 129.34 0.7 128.68 -1 128 C-1.02335546 111.90149298 -1.04099221 95.80299145 -1.05181217 79.70447159 C-1.05696949 72.22973311 -1.06400148 64.75500516 -1.07543945 57.28027344 C-1.08540348 50.76566236 -1.09185753 44.25105891 -1.09408849 37.73644042 C-1.09539267 34.2866889 -1.09846007 30.83695919 -1.10573006 27.38721466 C-1.11377803 23.53711029 -1.11399002 19.68702729 -1.11352539 15.83691406 C-1.11712067 14.69180359 -1.12071594 13.54669312 -1.12442017 12.36688232 C-1.1230455 11.31802856 -1.12167084 10.2691748 -1.12025452 9.1885376 C-1.12117631 8.27780613 -1.1220981 7.36707466 -1.12304783 6.42874527 C-1.00732775 4.14463674 -0.64307713 2.18812122 0 0 Z " fill="#F9E2AB" transform="translate(1,21)"/>
<path d="M0 0 C4.62 0 9.24 0 14 0 C14.21306803 7.68465361 13.4433181 14.81103306 12.125 22.375 C11.95097656 23.44105469 11.77695312 24.50710937 11.59765625 25.60546875 C10.14442754 34.16337113 10.14442754 34.16337113 8 38 C7.9455793 35.31222198 7.90612734 32.62556788 7.875 29.9375 C7.84986328 28.80924805 7.84986328 28.80924805 7.82421875 27.65820312 C7.78134879 22.70672291 8.41600625 18.69585549 10 14 C10.66 14 11.32 14 12 14 C11.98839844 13.39671875 11.97679687 12.7934375 11.96484375 12.171875 C11.95582031 11.37265625 11.94679688 10.5734375 11.9375 9.75 C11.92589844 8.96109375 11.91429687 8.1721875 11.90234375 7.359375 C12 5 12 5 13 1 C9.37 1 5.74 1 2 1 C1.67 3.97 1.34 6.94 1 10 C0.67 10 0.34 10 0 10 C0 6.7 0 3.4 0 0 Z " fill="#8EACA0" transform="translate(594,54)"/>
<path d="M0 0 C3.87498404 -0.02917234 7.74993958 -0.04685673 11.625 -0.0625 C12.71941406 -0.07087891 13.81382812 -0.07925781 14.94140625 -0.08789062 C16.53662109 -0.09272461 16.53662109 -0.09272461 18.1640625 -0.09765625 C19.62513428 -0.10551147 19.62513428 -0.10551147 21.11572266 -0.11352539 C24.14875321 0.00585494 27.01915268 0.44133276 30 1 C30 1.33 30 1.66 30 2 C20.43 2 10.86 2 1 2 C-0.32 8.93 -1.64 15.86 -3 23 C-3.33 23 -3.66 23 -4 23 C-4.10899487 20.47797971 -4.18775212 17.96076226 -4.25 15.4375 C-4.28351563 14.73302734 -4.31703125 14.02855469 -4.3515625 13.30273438 C-4.45417259 7.73613676 -3.08706205 4.62451618 0 0 Z " fill="#BFB87B" transform="translate(505,53)"/>
<path d="M0 0 C2.31 0.66 4.62 1.32 7 2 C7 2.99 7 3.98 7 5 C7.66 5 8.32 5 9 5 C9 6.32 9 7.64 9 9 C9.66 9 10.32 9 11 9 C11.18397086 18.38251366 11.18397086 18.38251366 10 23 C9.83113281 23.68578125 9.66226563 24.3715625 9.48828125 25.078125 C9.00114407 27.05431271 8.50150599 29.02740976 8 31 C7.01 30.67 6.02 30.34 5 30 C4.01 30.33 3.02 30.66 2 31 C2 30.34 2 29.68 2 29 C2.66 29 3.32 29 4 29 C4 28.34 4 27.68 4 27 C4.66 27 5.32 27 6 27 C6.75277515 24.26750659 7.16641703 21.71899317 7.31640625 18.890625 C7.35830078 18.13652344 7.40019531 17.38242188 7.44335938 16.60546875 C7.48267578 15.82816406 7.52199219 15.05085938 7.5625 14.25 C7.60568359 13.45722656 7.64886719 12.66445312 7.69335938 11.84765625 C7.79902991 9.89862185 7.89997966 7.94933252 8 6 C7.34 6 6.68 6 6 6 C6 5.34 6 4.68 6 4 C5.34 4 4.68 4 4 4 C4 3.34 4 2.68 4 2 C2.68 2 1.36 2 0 2 C0 1.34 0 0.68 0 0 Z " fill="#D7BE6B" transform="translate(535,55)"/>
<path d="M0 0 C3.96 0 7.92 0 12 0 C12 1.32 12 2.64 12 4 C11.34 4 10.68 4 10 4 C10 3.34 10 2.68 10 2 C6.7 2.33 3.4 2.66 0 3 C-0.33 4.32 -0.66 5.64 -1 7 C-2.8177085 10.63541701 -4.15521125 12.54163185 -8 14 C-8 14.66 -8 15.32 -8 16 C-8.66 16 -9.32 16 -10 16 C-9.34 14.02 -8.68 12.04 -8 10 C-7.34 10 -6.68 10 -6 10 C-5.34 8.02 -4.68 6.04 -4 4 C-3.01 4 -2.02 4 -1 4 C-0.67 2.68 -0.34 1.36 0 0 Z " fill="#545C74" transform="translate(485,72)"/>
<path d="M0 0 C2.1640625 -0.29296875 2.1640625 -0.29296875 4.625 -0.1875 C5.44226563 -0.16042969 6.25953125 -0.13335937 7.1015625 -0.10546875 C8.04128906 -0.05326172 8.04128906 -0.05326172 9 0 C9 0.66 9 1.32 9 2 C9.66 2 10.32 2 11 2 C12.38125018 4.76250036 12.19079306 6.94731099 12 10 C11.34 10.66 10.68 11.32 10 12 C10 9.03 10 6.06 10 3 C6.7 3.33 3.4 3.66 0 4 C-0.33 7.3 -0.66 10.6 -1 14 C1.97 14 4.94 14 8 14 C6 16 6 16 4.0546875 16.1953125 C2.03645833 16.13020833 0.01822917 16.06510417 -2 16 C-2.05402274 13.89611431 -2.09280256 11.79183286 -2.125 9.6875 C-2.14820313 8.51574219 -2.17140625 7.34398438 -2.1953125 6.13671875 C-2 3 -2 3 0 0 Z " fill="#A3B191" transform="translate(517,64)"/>
<path d="M0 0 C1.29349365 0.00523682 2.5869873 0.01047363 3.91967773 0.01586914 C4.9496714 0.01799156 4.9496714 0.01799156 6.00047302 0.02015686 C8.20144949 0.0257706 10.40232557 0.03832532 12.60327148 0.05102539 C14.09220231 0.05603863 15.58113473 0.06060184 17.07006836 0.06469727 C20.72700223 0.07574446 24.38387707 0.09301826 28.04077148 0.11352539 C28.04077148 0.77352539 28.04077148 1.43352539 28.04077148 2.11352539 C28.70077148 2.44352539 29.36077148 2.77352539 30.04077148 3.11352539 C28.06077148 3.11352539 26.08077148 3.11352539 24.04077148 3.11352539 C24.04077148 2.45352539 24.04077148 1.79352539 24.04077148 1.11352539 C15.79077148 1.11352539 7.54077148 1.11352539 -0.95922852 1.11352539 C-0.95922852 1.77352539 -0.95922852 2.43352539 -0.95922852 3.11352539 C-1.61922852 3.11352539 -2.27922852 3.11352539 -2.95922852 3.11352539 C-2.95922852 6.08352539 -2.95922852 9.05352539 -2.95922852 12.11352539 C-3.61922852 12.11352539 -4.27922852 12.11352539 -4.95922852 12.11352539 C-4.81885331 10.3005945 -4.67177962 8.48818109 -4.52172852 6.67602539 C-4.44051758 5.66668945 -4.35930664 4.65735352 -4.27563477 3.61743164 C-3.81969074 0.00928197 -3.70785209 0.14224497 0 0 Z " fill="#837C6B" transform="translate(368.959228515625,53.886474609375)"/>
<path d="M0 0 C3.96 0 7.92 0 12 0 C12.29296875 6.0546875 12.29296875 6.0546875 12 8 C11.01 8.66 10.02 9.32 9 10 C7.93753473 11.96752828 6.92862192 13.96587579 6 16 C5.34 16 4.68 16 4 16 C4 16.66 4 17.32 4 18 C3.34 18 2.68 18 2 18 C2.33 16.68 2.66 15.36 3 14 C3.66 14 4.32 14 5 14 C5.433125 12.8553125 5.433125 12.8553125 5.875 11.6875 C7 9 7 9 9 6 C9.66 6 10.32 6 11 6 C11 4.68 11 3.36 11 2 C7.37 2 3.74 2 0 2 C0 1.34 0 0.68 0 0 Z " fill="#CEAD5D" transform="translate(486,70)"/>
<path d="M0 0 C1.60379341 -0.05416188 3.20811406 -0.09286638 4.8125 -0.125 C5.70582031 -0.14820312 6.59914063 -0.17140625 7.51953125 -0.1953125 C10 0 10 0 13 2 C13.1875 5.125 13.1875 5.125 13 8 C12.67 6.68 12.34 5.36 12 4 C8.04 4 4.08 4 0 4 C-0.33 4.66 -0.66 5.32 -1 6 C-0.34 6 0.32 6 1 6 C1 7.98 1 9.96 1 12 C0.67 10.68 0.34 9.36 0 8 C-0.66 8 -1.32 8 -2 8 C-2 6.02 -2 4.04 -2 2 C-1.34 2 -0.68 2 0 2 C0 1.34 0 0.68 0 0 Z " fill="#A28F65" transform="translate(454,70)"/>
<path d="M0 0 C1.44632812 -0.00386719 1.44632812 -0.00386719 2.921875 -0.0078125 C5.25 0.125 5.25 0.125 6.25 1.125 C6.15982004 3.31550021 6.00333792 5.503466 5.8125 7.6875 C5.71066406 8.88503906 5.60882813 10.08257812 5.50390625 11.31640625 C5.42011719 12.24324219 5.33632813 13.17007813 5.25 14.125 C4.92 14.125 4.59 14.125 4.25 14.125 C4.25 9.835 4.25 5.545 4.25 1.125 C1.28 1.125 -1.69 1.125 -4.75 1.125 C-5.08 2.445 -5.41 3.765 -5.75 5.125 C-7.07 5.125 -8.39 5.125 -9.75 5.125 C-10.08 3.805 -10.41 2.485 -10.75 1.125 C-7.10861758 0.28774784 -3.73405504 -0.01009204 0 0 Z " fill="#5D6273" transform="translate(441.75,71.875)"/>
<path d="M0 0 C0.33 0 0.66 0 1 0 C1.18451025 12.66970387 1.18451025 12.66970387 0 18 C-0.66 18 -1.32 18 -2 18 C-2.33 19.32 -2.66 20.64 -3 22 C-3.27195445 14.92918435 -3.2150072 6.4300144 0 0 Z " fill="#7B766D" transform="translate(363,72)"/>
<path d="M0 0 C0.75732422 0.00644531 1.51464844 0.01289062 2.29492188 0.01953125 C3.08060547 0.03628906 3.86628906 0.05304688 4.67578125 0.0703125 C5.47306641 0.07933594 6.27035156 0.08835937 7.09179688 0.09765625 C9.05742025 0.12119665 11.022889 0.15706703 12.98828125 0.1953125 C12.98828125 0.5253125 12.98828125 0.8553125 12.98828125 1.1953125 C11.57675781 1.21658203 11.57675781 1.21658203 10.13671875 1.23828125 C0.41521659 1.59167441 0.41521659 1.59167441 -7.01171875 7.1953125 C-8.00171875 7.1953125 -8.99171875 7.1953125 -10.01171875 7.1953125 C-10.01171875 8.1853125 -10.01171875 9.1753125 -10.01171875 10.1953125 C-10.67171875 10.1953125 -11.33171875 10.1953125 -12.01171875 10.1953125 C-11.68171875 8.8753125 -11.35171875 7.5553125 -11.01171875 6.1953125 C-10.35171875 6.1953125 -9.69171875 6.1953125 -9.01171875 6.1953125 C-9.01171875 5.5353125 -9.01171875 4.8753125 -9.01171875 4.1953125 C-8.35171875 4.1953125 -7.69171875 4.1953125 -7.01171875 4.1953125 C-7.01171875 3.5353125 -7.01171875 2.8753125 -7.01171875 2.1953125 C-3.96490814 0.16410543 -3.41053551 -0.05128625 0 0 Z " fill="#515A75" transform="translate(418.01171875,71.8046875)"/>
<path d="M0 0 C0.33 0 0.66 0 1 0 C1.11459026 7.41017023 0.91160286 14.64206267 0 22 C-0.99 22 -1.98 22 -3 22 C-2.68905914 19.45813394 -2.37629464 16.91651402 -2.0625 14.375 C-1.97548828 13.66214844 -1.88847656 12.94929688 -1.79882812 12.21484375 C-1.29217395 8.12408039 -0.7110957 4.06157365 0 0 Z " fill="#77A6B1" transform="translate(501,76)"/>
<path d="M0 0 C0.33 0 0.66 0 1 0 C1 4.62 1 9.24 1 14 C0.34 14 -0.32 14 -1 14 C-1 16.64 -1 19.28 -1 22 C-1.33 22 -1.66 22 -2 22 C-2 16.72 -2 11.44 -2 6 C-1.34 6 -0.68 6 0 6 C0 4.02 0 2.04 0 0 Z " fill="#ABB38C" transform="translate(586,72)"/>
<path d="M0 0 C0.66 0 1.32 0 2 0 C1.67 6.6 1.34 13.2 1 20 C0.34 20 -0.32 20 -1 20 C-1.33 20.66 -1.66 21.32 -2 22 C-2 20.02 -2 18.04 -2 16 C-1.34 16 -0.68 16 0 16 C0 10.72 0 5.44 0 0 Z " fill="#79736E" transform="translate(444,86)"/>
<path d="M0 0 C0.66 0 1.32 0 2 0 C2 4.62 2 9.24 2 14 C1.34 14 0.68 14 0 14 C0 13.34 0 12.68 0 12 C-0.66 12 -1.32 12 -2 12 C-2.28571429 3.42857143 -2.28571429 3.42857143 0 0 Z " fill="#AFB389" transform="translate(555,84)"/>
<path d="M0 0 C0.33 0 0.66 0 1 0 C1 3.3 1 6.6 1 10 C0.34 10 -0.32 10 -1 10 C-1 13.3 -1 16.6 -1 20 C-1.66 20 -2.32 20 -3 20 C-2.69215623 17.04111327 -2.37894426 14.08296833 -2.0625 11.125 C-1.97548828 10.28324219 -1.88847656 9.44148438 -1.79882812 8.57421875 C-1.71181641 7.76855469 -1.62480469 6.96289062 -1.53515625 6.1328125 C-1.456604 5.38918457 -1.37805176 4.64555664 -1.29711914 3.87939453 C-1 2 -1 2 0 0 Z " fill="#D6BD6D" transform="translate(606,72)"/>
<path d="M0 0 C1.2380014 3.57644848 0.74926071 6.33694766 0 10 C-0.66 10 -1.32 10 -2 10 C-1.67 13.3 -1.34 16.6 -1 20 C-1.66 20 -2.32 20 -3 20 C-3 15.38 -3 10.76 -3 6 C-2.34 6 -1.68 6 -1 6 C-0.67 4.02 -0.34 2.04 0 0 Z " fill="#82A9A9" transform="translate(544,80)"/>
<path d="M0 0 C2.31 0.66 4.62 1.32 7 2 C7 2.99 7 3.98 7 5 C7.66 5 8.32 5 9 5 C9 8.96 9 12.92 9 17 C8.67 17 8.34 17 8 17 C8 13.37 8 9.74 8 6 C7.34 6 6.68 6 6 6 C6 5.34 6 4.68 6 4 C5.34 4 4.68 4 4 4 C4 3.34 4 2.68 4 2 C2.68 2 1.36 2 0 2 C0 1.34 0 0.68 0 0 Z " fill="#ADB38A" transform="translate(535,55)"/>
<path d="M0 0 C0.99 0.33 1.98 0.66 3 1 C3 3.31 3 5.62 3 8 C3.66 8 4.32 8 5 8 C5 8.66 5 9.32 5 10 C2.525 9.01 2.525 9.01 0 8 C0 5.36 0 2.72 0 0 Z " fill="#FBEAC3" transform="translate(0,141)"/>
<path d="M0 0 C0.66 0 1.32 0 2 0 C2.08086147 1.79093191 2.13912702 3.58289628 2.1875 5.375 C2.22230469 6.37273437 2.25710938 7.37046875 2.29296875 8.3984375 C2.19628906 9.25695312 2.09960938 10.11546875 2 11 C-1 13 -1 13 -3.1875 12.625 C-3.785625 12.41875 -4.38375 12.2125 -5 12 C-3.68 11.67 -2.36 11.34 -1 11 C-0.83273455 9.35422741 -0.66620388 7.70838013 -0.5 6.0625 C-0.4071875 5.14597656 -0.314375 4.22945313 -0.21875 3.28515625 C-0.05708522 1.64507518 -0.05708522 1.64507518 0 0 Z " fill="#6BA3BA" transform="translate(528,67)"/>
<path d="M0 0 C1 3 1 3 0.22265625 4.82421875 C-0.8515625 6.54947917 -1.92578125 8.27473958 -3 10 C-3.66 10 -4.32 10 -5 10 C-5 10.66 -5 11.32 -5 12 C-5.66 12 -6.32 12 -7 12 C-6.67 10.68 -6.34 9.36 -6 8 C-5.34 8 -4.68 8 -4 8 C-3.71125 7.236875 -3.4225 6.47375 -3.125 5.6875 C-2 3 -2 3 0 0 Z " fill="#998A67" transform="translate(495,76)"/>
<path d="M0 0 C0.33 0.99 0.66 1.98 1 3 C-0.28965176 4.37562854 -1.62689293 5.70766393 -3 7 C-3.66 7 -4.32 7 -5 7 C-5 7.66 -5 8.32 -5 9 C-5.66 9 -6.32 9 -7 9 C-6.34 7.02 -5.68 5.04 -5 3 C-3.68 3 -2.36 3 -1 3 C-0.67 2.01 -0.34 1.02 0 0 Z " fill="#465377" transform="translate(482,79)"/>
<path d="M0 0 C0.33 0 0.66 0 1 0 C1.1799928 5.21979128 0.97094808 9.07262981 -1 14 C-1.66 14 -2.32 14 -3 14 C-2.67 11.36 -2.34 8.72 -2 6 C-1.34 6 -0.68 6 0 6 C0 4.02 0 2.04 0 0 Z " fill="#AEB489" transform="translate(583,94)"/>
<path d="M0 0 C3.63 0 7.26 0 11 0 C11 0.99 11 1.98 11 3 C7.37 2.67 3.74 2.34 0 2 C0 1.34 0 0.68 0 0 Z " fill="#6AA3BB" transform="translate(575,72)"/>
<path d="M0 0 C0.66 0 1.32 0 2 0 C2 0.66 2 1.32 2 2 C4.31 2 6.62 2 9 2 C9 2.66 9 3.32 9 4 C6.03 4 3.06 4 0 4 C0 2.68 0 1.36 0 0 Z " fill="#092584" transform="translate(360,104)"/>
<path d="M0 0 C0.66 0 1.32 0 2 0 C2.6875 1.75 2.6875 1.75 3 4 C1.6875 6.25 1.6875 6.25 0 8 C-0.66 8 -1.32 8 -2 8 C-2 6.68 -2 5.36 -2 4 C-1.34 4 -0.68 4 0 4 C0 2.68 0 1.36 0 0 Z " fill="#FDF5E3" transform="translate(973,143)"/>
<path d="M0 0 C0.66 0 1.32 0 2 0 C2 1.32 2 2.64 2 4 C1.34 4 0.68 4 0 4 C-0.33 6.64 -0.66 9.28 -1 12 C-1.33 12 -1.66 12 -2 12 C-2.28571429 3.42857143 -2.28571429 3.42857143 0 0 Z " fill="#948668" transform="translate(417,84)"/>
<path d="M0 0 C0.33 0 0.66 0 1 0 C1 2.64 1 5.28 1 8 C0.34 8 -0.32 8 -1 8 C-1.33 8.66 -1.66 9.32 -2 10 C-2 8.02 -2 6.04 -2 4 C-1.34 4 -0.68 4 0 4 C0 2.68 0 1.36 0 0 Z " fill="#C1A460" transform="translate(432,86)"/>
<path d="M0 0 C1.65 0.33 3.3 0.66 5 1 C4.67 1.66 4.34 2.32 4 3 C0.9375 3.625 0.9375 3.625 -2 4 C-2 3.34 -2 2.68 -2 2 C-1.34 2 -0.68 2 0 2 C0 1.34 0 0.68 0 0 Z " fill="#F8D689" transform="translate(15,5)"/>
</svg>
