<svg data-name="Layer 1" xmlns="http://www.w3.org/2000/svg" viewBox="0 0 778.71 135.18"><path d="M42.66 67.09H17.87v35.57H10.6V17.34h27.71c9.1 0 16.21 2.2 21.33 6.61 5.12 4.41 7.68 10.57 7.68 18.49 0 5.46-1.6 10.28-4.8 14.46-3.2 4.17-7.5 7.06-12.89 8.66l21.33 36.32v.76h-7.68L42.66 67.07zM17.87 61h22.09c6.05 0 10.92-1.72 14.59-5.16 3.67-3.44 5.51-7.9 5.51-13.38 0-6.02-1.91-10.7-5.74-14.02-3.83-3.33-9.2-4.99-16.11-4.99H17.88v37.56zm116.19.76h-39.9v34.8h45.88v6.09H86.95V17.34h52.79v6.09H94.15v32.23h39.9v6.09zm80.22-38.32h-29.24v79.22h-7.21V23.44h-29.18v-6.09h65.62v6.09zm22.56 79.22h-7.21V17.34h7.21v85.31zm86.66 0h-7.21l-49.04-73.01v73.01h-7.27V17.34h7.27l49.1 73.07V17.34h7.15v85.31zm68.79-23.97h-38.73l-8.79 23.96h-7.56l32.29-85.31h6.86l32.29 85.31h-7.5l-8.85-23.96zm-36.51-6.09H390l-17.11-46.46-17.11 46.46zm129.2 1.64c-.67 9.18-4.05 16.41-10.17 21.68-6.11 5.27-14.17 7.91-24.17 7.91-10.94 0-19.54-3.68-25.81-11.04-6.27-7.36-9.4-17.47-9.4-30.32v-5.21c0-8.2 1.44-15.43 4.34-21.68 2.89-6.25 7.02-11.04 12.39-14.38 5.37-3.34 11.61-5.01 18.72-5.01 9.84 0 17.77 2.64 23.79 7.91 6.01 5.27 9.49 12.68 10.43 22.21h-17.58c-.43-5.51-1.96-9.5-4.6-11.98-2.64-2.48-6.65-3.72-12.04-3.72-5.86 0-10.25 2.1-13.15 6.3-2.91 4.2-4.41 10.71-4.48 19.54v6.45c0 9.22 1.4 15.96 4.19 20.21 2.79 4.26 7.2 6.39 13.21 6.39 5.43 0 9.48-1.24 12.16-3.72 2.67-2.48 4.21-6.32 4.6-11.51h17.58zm29.12 14.29h37.32v14.12h-54.9V17.34h17.58v71.19zm98.73-22.85h-33.75v22.85h39.61v14.12H561.5V17.34h57.07v14.24h-39.49v20.33h33.75v13.77zm64.34 19.4h-30.82l-5.86 17.58H621.8l31.76-85.31h16.29l31.93 85.31h-18.69l-5.92-17.58zm-26.08-14.24h21.33L661.7 38.91l-10.61 31.93zm90.24.59h-14v31.23h-17.58V17.34h31.7c10.08 0 17.85 2.25 23.32 6.74 5.47 4.49 8.2 10.84 8.2 19.04 0 5.82-1.26 10.67-3.78 14.56-2.52 3.89-6.34 6.98-11.46 9.29l18.46 34.86v.82h-18.87l-16-31.23zm-14.01-14.24h14.18c4.41 0 7.83-1.12 10.25-3.37s3.63-5.34 3.63-9.29-1.14-7.19-3.43-9.49-5.79-3.46-10.52-3.46h-14.12v25.61z" fill="#fff"/></svg>